<svg xmlns="http://www.w3.org/2000/svg" viewBox="0 0 1400 1400"><defs><style>.cls-1{fill:#1a1a1a;}.cls-2{fill:#fff;}.cls-3{fill:#c9db2f;}.cls-4{fill:#e73f98;}.cls-5{fill:#08afe6;}</style></defs><title>rock-paper-scissors-vector-icons</title><g id="Background"><rect class="cls-1" width="1400" height="1400"/></g><g id="Icons"><circle class="cls-2" cx="421.75" cy="939.17" r="227.5"/><circle class="cls-3" cx="421.75" cy="939.17" r="200.74"/><path class="cls-1" d="M421.75,730.24c-115.2,0-208.93,93.72-208.93,208.93s93.73,208.92,208.93,208.92,208.93-93.72,208.93-208.92S537,730.24,421.75,730.24Zm0,401.47c-106.17,0-192.55-86.37-192.55-192.54s86.38-192.55,192.55-192.55S614.3,833,614.3,939.17,527.92,1131.71,421.75,1131.71Z"/><path class="cls-2" d="M509.51,982.85V870.92a19.11,19.11,0,0,0-38.22-.43V810.86a19.11,19.11,0,0,0-38.22-.43V799.94a19.11,19.11,0,1,0-38.22,0v21.84a19.11,19.11,0,1,0-38.22,0V955.55c0-15.14-12.89-45.65-27.31-60.06-11.88-11.89-45.9-3.93-27.3,21.84,13,18,21.84,56.31,21.84,76.44,0,48.68,38.24,65.52,38.24,65.52v99.46a228.52,228.52,0,0,0,131-3.52v-95.94C510.88,1035.63,509.51,1037.17,509.51,982.85Z"/><path class="cls-1" d="M514.08,993.65c0-3.34,0-6.93,0-10.8V870.92a23.67,23.67,0,0,0-38.22-18.66v-41.4a23.66,23.66,0,0,0-39.24-17.81,23.68,23.68,0,0,0-39.4-9.83,23.47,23.47,0,0,0-6.9,16.72v3.21a23.64,23.64,0,0,0-38.22,18.63V922.34c-5.11-11.32-12-22.5-19.55-30.07-8.39-8.39-25.55-9-34.65-1.25-11.76,10-2.64,24.71.44,29,11.82,16.37,21,53.1,21,73.78,0,43.89,29,63.27,38.24,68.31V1138c3,1,6,1.88,9.1,2.72v-76.86h11.55a4.55,4.55,0,1,0,0-9.1H363.14c-5.19-2.64-34.74-19.53-34.74-61,0-19.9-8.63-59.62-22.7-79.11-3.74-5.18-7.12-12.29-1.93-16.71,5.56-4.73,17.24-4.33,22.33.75,13.74,13.75,26,43.24,26,56.85,0,.06,0,.12,0,.19.05,8.23,3,15.79,8.07,20.78a17.83,17.83,0,0,0,12.94,5.42H374c14.9,0,26.62,7.59,34.83,22.58a80.73,80.73,0,0,1,8.37,24.48,4.56,4.56,0,0,0,4.51,3.93,4.4,4.4,0,0,0,.62,0,4.55,4.55,0,0,0,3.89-5.13c-2.63-19.13-16.91-54.92-52.23-54.92h-1.28a9.06,9.06,0,0,1-6.22-2.82c-3.35-3.28-5.35-8.69-5.35-14.47,0,0,0-.07,0-.11V821.78a14.56,14.56,0,1,1,29.12,0v100.8c0,.07,0,.13,0,.21,0,3.56-1,5.74-1.55,6.41a4.55,4.55,0,0,0,.64,9.06,7.83,7.83,0,0,0,5.46-2.3,7.87,7.87,0,0,0,5.46,2.3,4.55,4.55,0,0,0,.65-9.06c-.53-.66-1.52-2.79-1.55-6.26,0-.05,0-.1,0-.15V799.93a14.54,14.54,0,0,1,14.54-14.55,14.59,14.59,0,0,1,14.58,14.56v9.91c0,.33,0,.67,0,1l0,117.39c0,3.57-1,5.74-1.57,6.41a4.55,4.55,0,0,0,.64,9.06,7.86,7.86,0,0,0,5.47-2.3,7.85,7.85,0,0,0,5.45,2.3,4.55,4.55,0,0,0,.66-9.06c-.54-.68-1.55-2.85-1.55-6.41V810.06a14.57,14.57,0,0,1,29.12.8v59c0,.33,0,.67,0,1l0,68.25c0,3.57-1,5.74-1.57,6.41a4.55,4.55,0,0,0,.64,9.06,7.86,7.86,0,0,0,5.47-2.3,7.85,7.85,0,0,0,5.45,2.3,4.55,4.55,0,0,0,.66-9.06c-.54-.68-1.55-2.85-1.55-6.41v-69a14.57,14.57,0,0,1,29.12.8V982.85c0,3.88,0,7.48,0,10.82.08,40.86.08,42.1-14.12,61.07h-8.62a4.55,4.55,0,0,0,0,9.1h6.34v73.29q4.6-1.56,9.1-3.33v-73C514.17,1038.76,514.16,1036.36,514.08,993.65Z"/><circle class="cls-2" cx="978.25" cy="939.17" r="227.5"/><circle class="cls-4" cx="978.25" cy="939.17" r="200.74"/><path class="cls-1" d="M978.25,1148.09c-115.2,0-208.93-93.72-208.93-208.92s93.73-208.93,208.93-208.93S1187.18,824,1187.18,939.17,1093.45,1148.09,978.25,1148.09Zm0-401.47C872.08,746.62,785.7,833,785.7,939.17s86.38,192.54,192.55,192.54,192.55-86.37,192.55-192.54S1084.42,746.62,978.25,746.62Z"/><path class="cls-2" d="M1052,1051.1c15.77-21,16.4-26.46,16.4-65.54,0-22.68-7.19-49.71-7.19-49.71l.12-.34a19.11,19.11,0,0,0-36.14-12.44l3.71-10.78a18.68,18.68,0,0,0-11.56-23.67l-.91-.31a18.68,18.68,0,0,0-23.68,11.55l-2,5.86,16.67-90c1.12-6,.37-12.43-2.94-17.6s-8.74-9.07-14.9-9.07h0c-10.55,0-17.78,11.77-19.48,21.84L953.67,914.6l-16.38-98.28c-2.73-12-8.39-21.84-18.74-21.84-6.25,0-11.84,3.78-15.41,9.06-3.38,5-4.3,11.28-3.4,17.25l15.74,104.73,7.34,37.62-7.34,6.06c-14.76,10.32-16.38,20.07-16.38,38.22h0c0,25.7,21.86,43.68,21.86,43.68h0v108.27a228.57,228.57,0,0,0,131-4.92l.06-103.35Z"/><path class="cls-1" d="M1072.91,985.56c0-20.41-5.54-43.76-7-49.56.06-.22.1-.44.16-.66s.18-.69.26-1,.15-.78.21-1.17.12-.71.16-1.06.08-.78.1-1.17,0-.71.06-1.07,0-.78,0-1.17,0-.71,0-1.07-.09-.78-.14-1.17-.07-.7-.13-1-.17-.81-.26-1.21-.14-.66-.22-1-.28-.89-.43-1.33c-.09-.28-.17-.55-.27-.83a21.39,21.39,0,0,0-.9-2.1,23.5,23.5,0,0,0-13.55-12c-.73-.25-1.47-.46-2.21-.64l-.63-.13c-.53-.11-1.07-.21-1.61-.29l-.73-.08c-.5,0-1-.1-1.52-.12h-.76c-.49,0-1,0-1.46,0-.27,0-.54,0-.8.06-.46,0-.92.09-1.37.16-.3,0-.59.09-.89.15s-.79.16-1.19.26-.68.16-1,.26-.63.2-.94.3-.81.27-1.21.43l-.18.06c0-.08,0-.17,0-.25v-.67c0-.48,0-1,0-1.44,0-.25,0-.5,0-.75,0-.46-.1-.92-.17-1.37,0-.24-.07-.48-.11-.72q-.13-.76-.33-1.5c0-.17-.07-.35-.12-.52-.18-.66-.39-1.32-.63-2,0-.13-.11-.26-.16-.4-.2-.5-.41-1-.65-1.49-.1-.22-.21-.42-.32-.63-.21-.41-.42-.81-.65-1.2l-.4-.65c-.25-.38-.5-.76-.77-1.13-.14-.19-.27-.39-.42-.57-.33-.45-.69-.87-1.06-1.29l-.26-.3c-.47-.51-1-1-1.47-1.46l-.46-.39c-.38-.32-.76-.64-1.15-.94l-.64-.45c-.37-.26-.74-.51-1.13-.75l-.69-.41c-.42-.24-.84-.46-1.27-.67l-.66-.32c-.63-.29-1.28-.55-1.95-.79l-.07,0h0l-.92-.32a23,23,0,0,0-2.35-.67l-.84-.15c-.51-.1-1-.2-1.53-.26-.33,0-.66,0-1-.08s-.92-.07-1.38-.08-.7,0-1,0-.86,0-1.29.06-.72.08-1.07.12-.83.11-1.23.19l-1.08.23c-.39.1-.78.19-1.17.31s-.71.22-1.06.34-.75.26-1.11.41-.7.29-1,.45-.71.33-1,.51l-.58.29,12.8-69.17c1.42-7.65.15-15.06-3.58-20.88-4.49-7-11.49-11.17-18.73-11.17-12.88,0-21.81,12.89-24,25.68l-12,76-11.77-70.62a2.56,2.56,0,0,0,0-.27c-5.05-22.08-16.68-25.37-23.16-25.37-7.33,0-14.5,4.13-19.19,11.06-3.8,5.62-5.27,12.89-4.13,20.47L911,926.19l0,.2,6.82,35-5.11,4.22c-16.71,11.76-18.14,24-18.17,41.24a6,6,0,0,0,0,.61c0,23.52,16.46,40.72,21.86,45.72v85.6c3,.93,6,1.79,9.1,2.59V1051.1a4.54,4.54,0,0,0-1.66-3.51c-.2-.17-19.87-16.72-20.2-39.61a3.43,3.43,0,0,0,0-.56c0-17.34,1.31-25.31,14.44-34.49l.14-.11,0,0c17.09-13.2,40.33-30.81,49.56-37,8.91-6,16.61-7.37,21.1-3.79a9,9,0,0,1,2.1,2.45,18.13,18.13,0,0,1,1.37,10.71,13.13,13.13,0,0,1-.49,1.62c-6.91,17.36-42.34,47.09-55.39,52.7-.09,0-.16.1-.25.14a3.62,3.62,0,0,0-.43.24c-.12.08-.23.17-.34.26a3.17,3.17,0,0,0-.35.29c-.11.11-.2.22-.3.34s-.19.22-.27.34a3.38,3.38,0,0,0-.24.41c-.05.09-.11.16-.15.25a.56.56,0,0,0,0,.12,4,4,0,0,0-.16.45c0,.14-.09.27-.12.41s0,.28-.06.43,0,.3,0,.45,0,.28,0,.42a3.44,3.44,0,0,0,.05.45c0,.14.07.27.1.4s.09.31.15.46a.56.56,0,0,0,0,.12s.06.09.08.14a4.31,4.31,0,0,0,.56.89,1,1,0,0,0,.12.17,4.77,4.77,0,0,0,.86.75c.09.06.18.1.26.16s.25.16.39.22c40.7,18.82,42.76,28.2,42.76,42a4.55,4.55,0,1,0,9.1,0c0-20.33-8.85-31.09-40-46.38a191,191,0,0,0,23.86-18.5,22.78,22.78,0,0,0,9.06,5.85l.91.31a22.91,22.91,0,0,0,17.69-1.11,5.45,5.45,0,0,0,.53-.29,23.77,23.77,0,0,0,2.14,6.83,23.66,23.66,0,0,0,43.62-2.67l14.15-41.14c1.78,9.46,3.6,21.79,3.6,32.92,0,38.58-.43,42.72-15.49,62.81a4.43,4.43,0,0,0-.85,3.3l0,84.64q4.61-1.62,9.1-3.45l0-80.33C1072.45,1031.09,1072.91,1023.55,1072.91,985.56Zm-86.62-81-5.37,15.6a5.1,5.1,0,0,0-.21.94c-7.4.73-14.37,4.73-18,7.15-7.15,4.79-22.36,16.17-36.8,27.19l-6-30.69L904.24,820.11c-.8-5.31.15-10.29,2.67-14,3-4.42,7.34-7.06,11.65-7.06,8.31,0,12.34,9.85,14.26,18.17l16.36,98.15a4.54,4.54,0,0,0,4.49,3.8h0a4.55,4.55,0,0,0,4.47-3.84l16.37-103.69c1.5-8.87,7.53-18,15-18,4.18,0,8.21,2.54,11.06,7,2.47,3.86,3.29,9,2.3,14.31Zm16.64,69.13A14.13,14.13,0,0,1,985,982.42l-.92-.32a13.38,13.38,0,0,1-3.46-1.79c8.81-10.92,15.45-20.86,18.78-28.08.26-.55.49-1.09.71-1.62l.21-.46a.08.08,0,0,1,0,0v0c.24-.61.44-1.22.62-1.84v0a23.14,23.14,0,0,0-2.27-18.66,27,27,0,0,0-8-9.94L997,901.34a14.09,14.09,0,0,1,17.89-8.73l.91.31a14.21,14.21,0,0,1,3.47,1.78l.28.18.3.24a14.22,14.22,0,0,1,5,7.47,13.89,13.89,0,0,1,.4,2.32,12.66,12.66,0,0,1,.07,1.74,13,13,0,0,1-.11,1.39,13.73,13.73,0,0,1-.65,2.77l-3.71,10.78-8.07,23.49Zm54.77-43.11c0,.21,0,.42,0,.63s-.1.6-.16.9-.06.35-.1.52c-.08.33-.18.66-.28,1,0,.14-.08.29-.12.43l-19.54,56.79a14.6,14.6,0,0,1-18.5,9h0a14.6,14.6,0,0,1-9-18.5l15-43.7,4.5-13.1c.15-.44.33-.88.52-1.3a0,0,0,0,0,0,0,14.51,14.51,0,0,1,6.86-7,14.19,14.19,0,0,1,1.46-.62l.46-.14c.34-.12.69-.22,1-.31l.56-.12c.32-.06.64-.12,1-.16l.6-.07c.32,0,.63,0,.95-.06h.55a12.76,12.76,0,0,1,2,.17l.4.07a15.61,15.61,0,0,1,2.09.53c.47.16.92.35,1.36.55.2.09.39.2.58.3s.47.23.69.36.48.31.72.47.32.2.47.31.58.45.87.7c.07.06.15.11.22.18a14.6,14.6,0,0,1,3.42,4.52,14.9,14.9,0,0,1,1.31,4.09.28.28,0,0,0,0,.09,11.3,11.3,0,0,1,.14,1.29c0,.18,0,.37,0,.56s0,.56,0,.84S1057.73,930.31,1057.7,930.57Z"/><circle class="cls-2" cx="700" cy="460.83" r="227.5"/><circle class="cls-5" cx="700" cy="460.83" r="200.74"/><path class="cls-1" d="M700,669.76c-115.2,0-208.93-93.72-208.93-208.93S584.8,251.91,700,251.91s208.93,93.72,208.93,208.92S815.2,669.76,700,669.76Zm0-401.47c-106.17,0-192.55,86.37-192.55,192.54S593.83,653.38,700,653.38,892.55,567,892.55,460.83,806.17,268.29,700,268.29Z"/><path class="cls-2" d="M778.37,488.13l16.19-131c1.71-17.4-8.38-21.84-18.73-21.84h0c-10.72,0-16.53,11.61-19.49,21.84L740,417.22h-.76c-1.71-6.34-6.22-12.18-11.94-14.9l-.74-.34-.8-.31c-.32-.11-.64-.22-1-.31l-.73-.2a11,11,0,0,0-1.14-.23c-.21,0-.41-.08-.61-.1a15.06,15.06,0,0,0-1.78-.12h-.06a14.58,14.58,0,0,0-1.76.12c-.21,0-.4.07-.61.1a10.77,10.77,0,0,0-1.13.23l-.71.2c-.32.09-.63.2-.94.31l-.78.31-.73.35c-.3.14-.61.29-.9.46l0,0c-5.09,2.9-8.91,8.44-10.4,14.41H701c-2.35-8.69-10-16.51-18.73-16.51s-15.86,7.82-18,16.51h-.7L653.4,346.31a58.86,58.86,0,0,0-3.11-12.76c-3.38-8.85-8.14-14.68-16.42-14.68h0c-10.72,0-20.17,11.78-19.49,22.6l10.93,141.2c-14.68,6.15-16.38,12.29-16.38,38.22h0c0,25.71,22.06,43.68,22.06,43.68V677.65a228.76,228.76,0,0,0,131,2.13V564.57C779.74,540.91,778.37,542.46,778.37,488.13Z"/><path class="cls-1" d="M782.94,498.94c0-3.26,0-6.76,0-10.53l16.17-130.87c.85-8.63-.87-15.38-5.1-20-4.09-4.51-10.2-6.8-18.16-6.8-7.57,0-17.86,4.36-23.88,25.2l-13.53,49.69a27.5,27.5,0,0,0-3.57-3.66,21.9,21.9,0,0,0-12.08-5.61,17.75,17.75,0,0,0-2.29-.16h-.08c-.67,0-1.31,0-2,.12h-.06a20.44,20.44,0,0,0-10.28,4.27,26.43,26.43,0,0,0-6.49,6.93,27.85,27.85,0,0,0-6.92-7.06,22.48,22.48,0,0,0-6-3.1l-.11,0c-.5-.17-1-.33-1.55-.46a19.05,19.05,0,0,0-4.82-.67,18.23,18.23,0,0,0-4.42.57,22.1,22.1,0,0,0-10.57,6.06c-.36.35-.71.7-1.06,1.07l-8.3-58.19a63,63,0,0,0-3.36-13.74c-1.67-4.36-6.73-17.61-20.68-17.61-6,0-11.81,2.74-16.48,7.71a27.11,27.11,0,0,0-7.54,19.79l10.67,138c-14.83,7.19-16.14,16.63-16.14,41.05h0c0,23.54,16.61,40.74,22.06,45.74v89.73q4.5,1.7,9.1,3.2v-95a4.54,4.54,0,0,0-1.67-3.52c-.21-.17-20.39-16.88-20.39-40.16h0c0-26.23,2-29.19,13.58-34h0l.12-.05a4.14,4.14,0,0,0,.62-.35l.09,0c16.28-11.28,25.12-24.16,29.9-31.11,2-2.93,4.63-5.95,7.57-7.48a1.39,1.39,0,0,0,.19-.06c3.38-1.69,6.62-1.05,9.63,1.9a17.86,17.86,0,0,1,3.73,5.47,2.14,2.14,0,0,0,.1.22c.15.34.29.69.42,1,0,.12.09.25.13.37.12.33.23.65.33,1l.12.43c.09.33.19.65.26,1,0,.08,0,.17.05.25a20.23,20.23,0,0,1,.37,2.27l0,.19c0,.31,0,.61,0,.91s0,.34,0,.51,0,.56,0,.83,0,.39,0,.58,0,.5-.07.74-.05.43-.09.65-.07.43-.12.64-.12.51-.19.76-.09.32-.14.47a9.31,9.31,0,0,1-.46,1.18.08.08,0,0,0,0,.05c-.24.5-.53,1-.83,1.57-3.45,6.18-12.31,17.13-34.44,35.74a4.55,4.55,0,0,0,2.93,8c.12,0,.23,0,.35,0a2.85,2.85,0,0,0,.29,0c22.1,0,30.12,28,30.12,46.77a4.55,4.55,0,0,0,9.1,0c0-24-10.05-48.17-29.37-54.35q4.09-3.62,7.66-7c4.65,5.71,11,9.1,17.57,9.1,8.08,0,14.7-4.85,18.78-11.38,4.72,7,12.35,11.38,19.44,11.38,13.7,0,23.25-13.9,23.25-26.39V422.5a26.23,26.23,0,0,0-.31-3.69c0-.13.11-.26.15-.4l16.35-60.05c2-6.93,6.63-18.56,15.12-18.56,5.29,0,9.13,1.29,11.42,3.81,2.43,2.68,3.37,7.07,2.8,12.93l-16.19,131a3.39,3.39,0,0,0,0,.55c0,3.89,0,7.48,0,10.82.08,42.14.08,42.14-15.49,62.89a4.57,4.57,0,0,0-.91,2.73v97.16q4.6-1.32,9.1-2.84v-92.8C783,544,783,541.64,782.94,498.94ZM659,422.61V441.2a36.32,36.32,0,0,0-8.71,9A110.13,110.13,0,0,1,629.2,474L618.92,341.19c-.27-4.33,1.69-9.28,5.11-12.93,2.88-3.07,6.47-4.84,9.84-4.84,3.8,0,8.22,1.4,12.17,11.75A53.74,53.74,0,0,1,648.9,347L659,417.86a4.79,4.79,0,0,0,.24.92A28.18,28.18,0,0,0,659,422.61Zm38.22,60.06c0,8-6.18,17.29-14.15,17.29-3.82,0-7.81-2.3-10.76-6,6.88-7.37,11.78-13.73,14.64-19,.3-.53.56-1.05.81-1.56a3.84,3.84,0,0,1,.18-.35,18.82,18.82,0,0,0,.79-2l.12-.4c.19-.59.35-1.18.49-1.78,0-.08,0-.16,0-.24,1.73-8-.78-17.59-6.55-24.13-.24-.28-.5-.54-.76-.81s-.32-.36-.5-.53l-.16-.15c-.34-.32-.68-.62-1-.92-.19-.16-.38-.32-.58-.47s-.69-.54-1-.79l-.68-.44c-.22-.14-.42-.29-.64-.42l-.61-.32h0a15.63,15.63,0,0,0-8.71-1.94V422.61a17.79,17.79,0,0,1,.43-3.73,5.27,5.27,0,0,0,.19-.56c1.62-6.46,6.78-13,13.52-13s12.55,6.66,14.3,13.09a4.45,4.45,0,0,0,.19.51,15.86,15.86,0,0,1,.49,3.69Zm38.22,0c0,8-6.18,17.29-14.15,17.29s-15-9.5-15-17.29V422.61a17.33,17.33,0,0,1,.42-3.69c.08-.2.15-.39.21-.59,1.29-5.14,5-10.54,9.94-12.4l0,0c.33-.12.67-.22,1-.31l.49-.11.74-.14c.37,0,.75-.07,1.14-.08h.34a9.69,9.69,0,0,1,1.2.09c.19,0,.38.07.56.1s.51.1.76.17l.68.2.56.2c.27.11.53.21.79.33l.3.15c4.45,2.24,8,7.12,9.26,11.9a4.43,4.43,0,0,0,.17.47,15.76,15.76,0,0,1,.5,3.73Z"/></g></svg>